<svg width="64" height="67" viewBox="0 0 64 67" fill="none" xmlns="http://www.w3.org/2000/svg">
<circle cx="32" cy="32" r="32" fill="#E7F3F0"/>
<path d="M47.0741 56.2741C46.6857 56.2741 46.3709 56.5888 46.3709 56.9772V65.5938H42.8956V50.264C44.5187 50.9621 45.7327 52.3647 46.1837 54.0912C46.4002 54.5148 46.6862 54.6824 47.0417 54.5938C47.4174 54.4955 47.6425 54.1114 47.5442 53.7358C46.936 51.4075 45.2131 49.5525 42.9356 48.7734L37.9192 47.0575C37.6104 46.7493 37.2419 46.5527 36.814 46.4674V43.4807C38.5992 42.064 39.7486 39.879 39.7576 37.4301H40.3687C41.7619 37.4301 42.8953 36.2967 42.8953 34.9035V33.5371C42.8953 32.5264 42.2989 31.6525 41.4396 31.2487V28.345C41.4396 26.8238 41.0653 25.3138 40.3574 23.978C40.1756 23.6348 39.75 23.5043 39.4069 23.686C39.0638 23.8678 38.9331 24.2934 39.1149 24.6365C39.7157 25.7703 40.0333 27.0527 40.0333 28.3451V31.0042C36.5224 30.9412 31.3064 30.512 29.7379 26.7153C29.6292 26.4523 29.3727 26.2807 29.088 26.2807C27.1162 26.2807 25.473 27.9238 25.473 29.8957V31.0105H23.9665V25.5278C23.9665 24.3093 24.9577 23.3181 26.1762 23.3181C26.5645 23.3181 26.8793 23.0034 26.8793 22.615C27.0059 21.2691 27.7422 20.5329 29.088 20.4062H32.0946C34.0451 20.4062 35.9198 21.1202 37.3735 22.4168C37.6633 22.6756 38.1078 22.65 38.3662 22.3602C38.6247 22.0704 38.5992 21.6259 38.3095 21.3674C36.5979 19.8408 34.3907 19 32.0947 19H29.0881C27.3574 19 25.8339 20.2764 25.5302 21.9696C23.8435 22.2751 22.5603 23.7543 22.5603 25.5278V31.2487C21.701 31.6525 21.1046 32.5264 21.1046 33.5371V34.9035C21.1046 36.2967 22.238 37.4301 23.6312 37.4301H24.2423C24.2513 39.879 25.4007 42.064 27.1859 43.4807V46.4566C26.7169 46.5363 26.3175 46.7473 25.9878 47.0894L21.0642 48.7734C18.1683 49.7643 16.2227 52.4866 16.2227 55.5474V66.2969C16.2227 66.6853 16.5375 67 16.9258 67H47.074C47.4623 67 47.7771 66.6853 47.7771 66.2969V56.9772C47.7772 56.5888 47.4624 56.2741 47.0741 56.2741ZM37.1211 48.5397V52.0208C36.9903 52.6523 36.626 52.8473 36.028 52.6058L34.1593 51.36V49.2004L36.028 47.9547C36.4911 47.6458 37.1211 47.9985 37.1211 48.5397ZM32 54.8875L30.4042 52.6332L30.6949 52.4394H33.2432L33.5761 52.6613L32 54.8875ZM27.9102 52.6058C27.3121 52.8473 26.9478 52.6523 26.817 52.0208V48.5397C26.817 47.9975 27.4587 47.6537 27.9102 47.9547L29.7789 49.2004V51.36L27.9102 52.6058ZM32.7529 51.0332H31.1851V49.5273H32.7529V51.0332ZM41.4892 34.9035C41.4892 35.5213 40.9866 36.0239 40.3688 36.0239H39.7578V32.4166H40.3688C40.9866 32.4166 41.4892 32.9192 41.4892 33.537V34.9035ZM22.5108 34.9035V33.5371C22.5108 32.9192 23.0134 32.4167 23.6312 32.4167H24.2422V36.024H23.6312C23.0135 36.0239 22.5108 35.5213 22.5108 34.9035ZM25.6484 37.4012L25.6486 32.4166H26.1762C26.5646 32.4166 26.8794 32.1018 26.8794 31.7134V29.8956C26.9778 28.7257 27.5703 28.0034 28.6571 27.7288C29.5988 29.5849 31.3584 30.8802 33.9764 31.6318C33.2268 31.9431 33.5786 32.9845 34.246 32.9845H35.702C36.1104 32.9845 36.4722 32.5309 36.3903 32.1373C37.0093 32.2264 37.6629 32.2941 38.3514 32.3405L38.3516 37.4012C38.3516 40.9035 35.5022 43.7528 32 43.7528C28.4978 43.7528 25.6484 40.9036 25.6484 37.4012ZM32 45.1591C33.2218 45.1591 34.3786 44.8751 35.4078 44.3698V46.6878C35.3534 46.7176 33.2432 48.121 33.2432 48.121H30.6949C30.6949 48.121 28.6253 46.7426 28.5922 46.7231V44.3698C29.6214 44.8751 30.7782 45.1591 32 45.1591ZM21.8075 62.3659C21.4192 62.3659 21.1044 62.6807 21.1044 63.0691V65.5938H17.6291V55.5475C17.6291 53.2371 19.0085 51.1668 21.1044 50.2642V60.0044C21.1044 60.3928 21.4192 60.7075 21.8075 60.7075C22.1958 60.7075 22.5106 60.3928 22.5106 60.0044V49.7651L25.4109 48.7734V52.0208C25.4109 54.1496 27.8711 54.5133 29.2338 53.4136L31.297 56.3282V65.5938H22.5107V63.0691C22.5106 62.6808 22.1958 62.3659 21.8075 62.3659ZM32.7031 65.5938V56.3281L34.7465 53.4416C36.1167 54.4658 38.5272 54.2416 38.5272 52.0207V48.7521L41.4894 49.765V65.5938H32.7031Z" fill="#00573D"/>
<path d="M29.5335 39.1328C29.5335 40.4928 30.6399 41.5993 32 41.5993C33.36 41.5993 34.4664 40.4928 34.4664 39.1328C34.4664 38.7444 34.1516 38.4297 33.7633 38.4297C33.375 38.4297 33.0602 38.7444 33.0602 39.1328C33.0602 39.7173 32.5846 40.193 32 40.193C31.4154 40.193 30.9398 39.7174 30.9398 39.1328C30.9398 38.7444 30.6249 38.4297 30.2366 38.4297C29.8483 38.4297 29.5335 38.7444 29.5335 39.1328Z" fill="#00573D"/>
<path d="M29.7292 34.7598C29.7292 34.3714 29.4144 34.0566 29.0261 34.0566C28.6377 34.0566 28.3229 34.3714 28.3229 34.7598V35.6826C28.3229 36.071 28.6377 36.3858 29.0261 36.3858C29.4144 36.3858 29.7292 36.071 29.7292 35.6826V34.7598Z" fill="#00573D"/>
<path d="M35.0839 36.3857C35.4722 36.3857 35.787 36.071 35.787 35.6825V34.7598C35.787 34.3714 35.4722 34.0566 35.0839 34.0566C34.6956 34.0566 34.3808 34.3714 34.3808 34.7598V35.6826C34.3808 36.071 34.6956 36.3857 35.0839 36.3857Z" fill="#00573D"/>
<path d="M28.298 32.9844H29.754C30.1423 32.9844 30.4572 32.6697 30.4572 32.2812C30.4572 31.8928 30.1423 31.5781 29.754 31.5781H28.298C27.9097 31.5781 27.5949 31.8928 27.5949 32.2812C27.5949 32.6697 27.9097 32.9844 28.298 32.9844Z" fill="#00573D"/>
</svg>
