<svg width="64" height="70" viewBox="0 0 64 70" fill="none" xmlns="http://www.w3.org/2000/svg">
<circle cx="32" cy="32" r="32" fill="#E7F3F0"/>
<path d="M25.8792 36.974C25.4243 36.4761 24.7766 36.1845 24.1023 36.174C22.7461 36.1566 21.6241 37.2379 21.6011 38.5931C21.5937 39.0299 21.9419 39.39 22.3786 39.3974C22.3833 39.3975 22.3877 39.3975 22.3924 39.3975C22.823 39.3975 23.1757 39.0521 23.1829 38.6197C23.1911 38.1358 23.5889 37.7474 24.0775 37.7559C24.3215 37.7597 24.5464 37.8609 24.7111 38.041C25.0058 38.3637 25.5062 38.3862 25.8286 38.0916C26.1512 37.797 26.1738 37.2965 25.8792 36.974Z" fill="#00573D"/>
<path d="M30.0876 39.5527C29.8451 38.9827 29.3731 38.5329 28.7923 38.3185C27.6243 37.8876 26.3223 38.4864 25.8896 39.653C25.7376 40.0626 25.9465 40.5178 26.3561 40.6698C26.4468 40.7035 26.5397 40.7194 26.631 40.7194C26.9524 40.7194 27.2544 40.5221 27.3728 40.2032C27.5027 39.8528 27.8943 39.6735 28.2445 39.8027C28.4205 39.8677 28.558 39.9988 28.6316 40.1718C28.8025 40.5737 29.2672 40.7612 29.6691 40.5902C30.0712 40.4192 30.2584 39.9547 30.0876 39.5527Z" fill="#00573D"/>
<path d="M35.1857 32.5466C34.8765 32.2379 34.3756 32.2385 34.0671 32.5477L33.3214 33.2949C33.0128 33.6041 33.0134 34.105 33.3226 34.4135C33.4769 34.5676 33.6791 34.6446 33.8813 34.6446C34.084 34.6446 34.2867 34.5671 34.4412 34.4123L35.1869 33.6652C35.4955 33.3559 35.4949 32.8551 35.1857 32.5466Z" fill="#00573D"/>
<path d="M30.2645 42.7578H29.2103C28.7733 42.7578 28.4193 43.112 28.4193 43.5488C28.4193 43.9857 28.7733 44.3398 29.2103 44.3398H30.2645C30.7015 44.3398 31.0555 43.9857 31.0555 43.5488C31.0555 43.112 30.7015 42.7578 30.2645 42.7578Z" fill="#00573D"/>
<path d="M38.348 42.7578H37.2936C36.8566 42.7578 36.5026 43.112 36.5026 43.5488C36.5026 43.9857 36.8567 44.3398 37.2936 44.3398H38.348C38.7848 44.3398 39.139 43.9857 39.139 43.5488C39.139 43.112 38.7848 42.7578 38.348 42.7578Z" fill="#00573D"/>
<path d="M58.9746 57.0203L58.7686 55.9085C58.6373 55.198 58.0169 54.6824 57.2935 54.6824C57.2027 54.6824 57.1112 54.6907 57.0211 54.7073L52.8277 55.4776L54.7267 54.2081C55.2244 53.8755 55.476 53.2804 55.3675 52.6901C55.3373 52.5284 55.2808 52.3733 55.1989 52.228L54.6242 51.2104C54.4273 50.8607 54.0915 50.601 53.7039 50.498C53.5141 50.4474 53.3156 50.4361 53.1219 50.4613C53.3334 49.2942 53.4425 48.1022 53.4425 46.8888C53.4425 46.3504 53.1187 45.8871 52.6562 45.6813C53.2605 44.244 53.3018 42.5985 52.7044 41.0915C52.656 40.969 52.584 40.8596 52.4909 40.7664C52.3985 40.674 52.2904 40.6026 52.1678 40.5533C51.4519 40.2682 50.6996 40.1237 49.9317 40.1237C49.8335 40.1237 49.7358 40.1263 49.6383 40.1309C49.5287 37.9231 47.7015 36.1607 45.4708 36.1607C45.1771 36.1607 44.8907 36.1919 44.614 36.2501C44.8062 35.1005 44.693 33.8978 44.2453 32.7687C44.1972 32.6446 44.125 32.5332 44.0268 32.4334C43.9323 32.3389 43.8214 32.266 43.6984 32.2172C42.9274 31.9101 42.1169 31.7544 41.2896 31.7544C40.0434 31.7544 38.8513 32.1048 37.8222 32.7562C37.4462 31.667 36.8261 30.6445 35.9598 29.7761C35.706 29.522 35.3686 29.3819 35.0094 29.3819C34.6503 29.3819 34.3128 29.522 34.0587 29.7764L30.2289 33.615C29.5201 32.9828 28.5875 32.6049 27.5752 32.6049C27.3455 32.6049 27.1135 32.6251 26.8858 32.6647C26.0608 32.8084 25.3015 33.2122 24.7194 33.8037C23.973 33.4435 23.118 33.3206 22.2963 33.4636C22.1155 33.4951 21.9401 33.5394 21.7699 33.5934V30.6354C21.7699 28.5984 20.1327 26.9382 18.1075 26.9032V25.2256C18.7274 25.1183 19.2008 24.578 19.2008 23.9279V20.1269C19.2008 19.4001 18.6094 18.8086 17.8824 18.8086H11.4498C10.7228 18.8086 10.1315 19.4001 10.1315 20.1269V23.9279C10.1315 24.578 10.6048 25.1183 11.2247 25.2256V26.903C9.19954 26.9379 7.56246 28.5981 7.56246 30.6352V53.7218C5.98318 55.148 5 57.1381 5 59.3388C5 63.6679 8.7995 67.1899 13.4698 67.1899L45.1301 67.1806C46.2107 67.1802 47.227 66.7053 47.9182 65.8777C48.5915 65.0722 48.8777 64.0258 48.7128 62.9939L55.0364 64.1303C55.1239 64.1461 55.2136 64.1541 55.3025 64.1541C55.6178 64.1541 55.92 64.0573 56.1759 63.8744C56.5048 63.6394 56.7275 63.2756 56.7868 62.8766L56.9581 61.7274C56.9828 61.5627 56.9801 61.3969 56.95 61.2344C56.8412 60.6467 56.3937 60.1805 55.8099 60.0467L53.581 59.5354L57.7703 58.7658C58.1654 58.6932 58.5082 58.4714 58.7356 58.1412C58.9626 57.8118 59.0474 57.4138 58.9746 57.0203ZM49.9317 41.7056C50.4079 41.7056 50.8761 41.781 51.3262 41.9296C51.7285 43.1545 51.5779 44.4757 50.948 45.5671H48.8171L49.4971 44.8855C49.8057 44.5763 49.8051 44.0754 49.4957 43.7668C49.1864 43.4582 48.6855 43.4588 48.3771 43.7681L48.0174 44.1287C47.8487 43.5734 47.5543 43.0762 47.1672 42.6684C47.9523 42.045 48.9161 41.7056 49.9317 41.7056ZM45.4708 37.7425C46.8994 37.7425 48.0616 38.9081 48.0616 40.3409C48.0616 40.3675 48.0603 40.3937 48.0596 40.4201C47.2257 40.6913 46.4572 41.1443 45.8017 41.7595C45.6974 41.7199 45.5916 41.6832 45.483 41.6531C45.2516 40.4031 44.4092 39.4012 43.2964 38.9332C43.7582 38.2177 44.5596 37.7425 45.4708 37.7425ZM41.2895 33.3362C41.8268 33.3362 42.3548 33.4231 42.8636 33.595C43.2725 34.8109 43.1889 36.1169 42.6679 37.2482C42.2396 37.6383 41.8921 38.1161 41.6546 38.6531C41.5133 38.6613 41.3721 38.6769 41.2326 38.7012C40.6128 38.8091 40.0348 39.078 39.5511 39.4681C39.3862 39.1664 39.1842 38.8881 38.9528 38.6375L40.7667 36.8194C41.0753 36.5102 41.0747 36.0093 40.7654 35.7008C40.4561 35.3922 39.9553 35.3928 39.6467 35.7021L37.6641 37.6892C37.2868 37.5109 36.8791 37.3868 36.4506 37.3288C36.6356 36.3849 37.0937 35.4955 37.8022 34.7853C38.7345 33.8508 39.973 33.3362 41.2895 33.3362ZM35.2283 45.5671H34.5426C34.4271 45.2732 34.1416 45.0649 33.8068 45.0649C33.4719 45.0649 33.1864 45.2733 33.0709 45.5671H32.2643C32.4516 45.2621 32.4137 44.8579 32.1493 44.594C31.8401 44.2854 31.3392 44.2859 31.0306 44.5952L30.2851 45.3423C30.2181 45.4094 30.1666 45.4859 30.1288 45.5671H28.5188C27.9158 44.6418 27.5479 43.5497 27.5043 42.3748H40.0536C40.01 43.5497 39.642 44.6418 39.0391 45.5671H37.3637C37.3259 45.4859 37.2743 45.4093 37.2074 45.3422L36.4619 44.5951C36.1532 44.2859 35.6526 44.2851 35.3433 44.5938C35.0787 44.8577 35.0409 45.262 35.2283 45.5671ZM33.3886 40.7927C33.6868 39.6877 34.6947 38.8724 35.8892 38.8724C37.0839 38.8724 38.0919 39.6878 38.39 40.7927H33.3886ZM35.0062 31.0663C35.7586 31.8795 36.2561 32.845 36.5 33.8598C36.0962 34.2986 35.7607 34.7836 35.4961 35.2996C35.3759 35.226 35.2351 35.1829 35.084 35.1829H34.0299C33.5931 35.1829 33.2389 35.537 33.2389 35.9739C33.2389 36.4107 33.5931 36.7649 34.0299 36.7649H34.9546C34.9026 36.9833 34.8622 37.2044 34.8329 37.4271C34.5188 37.5096 34.2188 37.6271 33.9381 37.7767C33.4109 36.8668 32.5378 36.1887 31.5033 35.9167C31.503 35.9145 31.5026 35.9123 31.5022 35.9101C31.4402 35.5521 31.332 35.2125 31.1844 34.8968L35.0062 31.0663ZM20.707 38.204C20.6606 38.0743 20.6255 37.9412 20.6024 37.8077C20.3755 36.4997 21.2572 35.2502 22.5674 35.022C22.7056 34.998 22.846 34.9858 22.9846 34.9858C23.5057 34.9858 24.0037 35.152 24.4246 35.4664C24.5988 35.5965 24.819 35.6491 25.0333 35.612C25.2476 35.5748 25.4371 35.4511 25.5574 35.2698C25.9287 34.7096 26.4969 34.338 27.1571 34.223C27.2956 34.1989 27.4363 34.1867 27.5752 34.1867C28.7471 34.1867 29.7432 35.0252 29.9434 36.1806C29.9664 36.313 29.9782 36.4509 29.9784 36.5907C29.9791 37.0001 30.2923 37.3414 30.7002 37.3772C31.5846 37.455 32.3374 38.0115 32.6864 38.7956C32.2192 39.3564 31.8953 40.0411 31.7723 40.7927H27.2612C26.7003 40.7927 26.2191 41.139 26.0184 41.629C25.0259 40.953 23.8563 40.5889 22.6305 40.5889C21.8626 40.5889 21.1103 40.7335 20.3939 41.0186C20.2724 41.0672 20.1638 41.1388 20.0712 41.2314C19.9773 41.3252 19.9053 41.4352 19.8581 41.5559C19.676 42.015 19.5546 42.487 19.489 42.9619C19.2055 42.6392 19.0058 42.2379 18.9277 41.7875C18.7417 40.7143 19.3035 39.6457 20.2935 39.1888C20.6656 39.0171 20.845 38.5897 20.707 38.204ZM23.065 45.3508L23.2808 45.5671H21.381C20.9545 44.5776 20.8898 43.4513 21.236 42.3949C21.6868 42.2461 22.1547 42.1708 22.6305 42.1708C23.8224 42.1708 24.9436 42.6366 25.7875 43.4824C25.8997 43.5949 26.0042 43.7128 26.1024 43.8347C26.2365 44.4415 26.4424 45.0213 26.7078 45.567H25.5157L24.185 44.2332C23.8763 43.9241 23.3754 43.9232 23.0664 44.232C22.7571 44.5407 22.7564 45.0415 23.065 45.3508ZM19.6964 45.5671H16.8765C17.0022 44.8008 17.4631 44.1477 18.1029 43.7625C18.4816 44.2699 18.9759 44.6802 19.5455 44.9581C19.5857 45.1633 19.6352 45.3668 19.6964 45.5671ZM11.7135 20.3906H17.6188V23.6643H11.7135V20.3906ZM16.5255 25.2463V26.9014H12.8069V25.2463H16.5255ZM9.14459 33.8431H14.2812C14.7182 33.8431 15.0722 33.4889 15.0722 33.0521C15.0722 32.6152 14.7182 32.2611 14.2812 32.2611H9.14459V30.6352C9.14459 29.4487 10.1069 28.4834 11.2897 28.4834H18.0426C19.2256 28.4834 20.1879 29.4487 20.1879 30.6352V32.2611H18.7109C18.2739 32.2611 17.9199 32.6152 17.9199 33.0521C17.9199 33.4889 18.2739 33.8431 18.7109 33.8431H20.1879V34.5452C19.2816 35.4338 18.8109 36.7368 19.0433 38.0772C19.0437 38.0799 19.0443 38.0826 19.0447 38.0854C17.7757 38.956 17.0995 40.5039 17.3688 42.0577C17.3845 42.1484 17.4042 42.2376 17.4258 42.3259C17.0306 42.5438 16.6757 42.8252 16.3715 43.1545H9.14459V33.8431ZM9.14448 44.7364H15.453C15.369 45.003 15.3097 45.2805 15.2808 45.5671H15.1475C14.4195 45.5671 13.8271 46.1599 13.8271 46.8886C13.8271 48.1446 13.9438 49.3776 14.17 50.584C13.9428 50.5657 13.7097 50.5559 13.4726 50.5559C12.516 50.5559 11.6045 50.7077 10.9064 50.9834C9.83857 51.4051 9.54336 52.0038 9.47892 52.4181C9.36576 52.4744 9.25459 52.5339 9.14448 52.5947V44.7364ZM19.1609 54.4537C19.4458 54.6816 19.6199 54.8754 19.7208 55.0151C19.7114 55.0152 19.7014 55.0154 19.6914 55.0154C19.2437 55.0154 18.4393 54.8349 17.5246 54.3285C17.184 54.1399 16.8702 53.9267 16.6171 53.7123C16.322 53.4622 15.8893 53.4624 15.5944 53.7124C15.3413 53.927 15.0276 54.1401 14.6874 54.3283C13.7724 54.8349 12.968 55.0154 12.5204 55.0154C12.5102 55.0154 12.5004 55.0152 12.4908 55.0151C12.5916 54.8754 12.7657 54.6815 13.0507 54.4535C13.2997 54.2542 13.4047 53.9247 13.3168 53.6181C13.2289 53.3114 12.9654 53.0875 12.6485 53.0504C11.8765 52.9599 11.3884 52.7634 11.1599 52.6204C11.4462 52.442 12.1702 52.138 13.4729 52.138C14.5518 52.138 15.3404 52.3648 15.7186 52.5772C15.9592 52.7122 16.2525 52.7122 16.4931 52.5773C16.8715 52.3649 17.6602 52.1381 18.7391 52.1381C20.042 52.1381 20.7658 52.4422 21.0521 52.6205C20.8236 52.7636 20.3354 52.96 19.5633 53.0505C19.2463 53.0877 18.9828 53.3115 18.8949 53.6183C18.8068 53.925 18.9117 54.2545 19.1609 54.4537ZM17.5786 64.0815L17.6058 64.2281C17.6999 64.7362 17.8982 65.2024 18.1754 65.6079H13.4698C9.67193 65.6079 6.58203 62.7956 6.58203 59.3388C6.58203 56.9764 8.02568 54.916 10.1515 53.8476C10.3957 54.0299 10.7 54.187 11.0612 54.3138C10.9179 54.5584 10.8182 54.8214 10.7946 55.0957C10.7634 55.4604 10.875 55.8068 11.1091 56.0711C11.4185 56.4204 11.8933 56.5975 12.5204 56.5975C13.3562 56.5975 14.4527 56.2666 15.4536 55.7125C15.684 55.585 15.9019 55.4503 16.1059 55.3096C16.3098 55.4502 16.5277 55.5849 16.7582 55.7126C17.7591 56.2666 18.8557 56.5974 19.6914 56.5975H19.6915C20.3184 56.5975 20.7932 56.4204 21.1025 56.0712C21.3367 55.8069 21.4484 55.4605 21.4171 55.0957C21.3936 54.8214 21.2938 54.5584 21.1506 54.3138C21.5117 54.1869 21.8162 54.0297 22.0603 53.8476C23.7463 54.6949 25.0025 56.1663 25.4504 57.9174L19.8558 60.0427C18.2182 60.665 17.2605 62.3634 17.5786 64.0815ZM46.7041 64.8635C46.3141 65.3305 45.74 65.5984 45.1293 65.5986L44.2991 65.5989L43.7804 62.7982C43.7008 62.3686 43.2883 62.0846 42.8585 62.1644C42.429 62.2439 42.1452 62.6566 42.2247 63.0862L42.6903 65.5994L39.9686 65.6005L39.6179 63.7066C39.5382 63.277 39.1257 62.9933 38.696 63.0728C38.2665 63.1523 37.9827 63.565 38.0622 63.9946L38.3596 65.6011L32.0289 65.6035L31.5524 63.0314C31.4727 62.6018 31.0603 62.3181 30.6305 62.3977C30.2009 62.4772 29.9172 62.89 29.9967 63.3196L30.42 65.6042L21.1763 65.6077C21.1761 65.6077 21.1759 65.6077 21.1757 65.6077C20.1872 65.6077 19.3401 64.9064 19.161 63.9397L19.1338 63.7931C18.955 62.8274 19.4948 61.8722 20.4174 61.5216L23.5263 60.3406L23.7579 61.5906C23.8284 61.9714 24.1609 62.2376 24.5346 62.2376C24.5825 62.2376 24.631 62.2332 24.6798 62.2242C25.1092 62.1446 25.3929 61.7319 25.3133 61.3023L25.0293 59.7695L29.644 58.0165C30.0524 57.8613 30.2578 57.4044 30.1026 56.996C29.9475 56.5876 29.4901 56.3823 29.0823 56.5375L26.9349 57.3533C26.3324 55.2204 24.7848 53.4387 22.7325 52.418C22.6681 52.0037 22.3728 51.405 21.3051 50.9833C20.607 50.7076 19.6955 50.5558 18.7389 50.5558C18.0806 50.5558 17.4519 50.6285 16.8969 50.7609V50.2831C16.8969 49.8462 16.5429 49.4921 16.1059 49.4921C15.9212 49.4921 15.7519 49.5558 15.6172 49.6619C15.4924 48.8368 15.4226 47.9988 15.411 47.1489H41.1756C41.6126 47.1489 41.9667 46.7947 41.9667 46.3579C41.9667 45.921 41.6126 45.5669 41.1756 45.5669H40.852C41.3557 44.5295 41.6402 43.3664 41.6402 42.1371C41.6402 41.4393 41.1062 40.8643 40.4258 40.7991C40.722 40.5197 41.0918 40.3313 41.504 40.2595C41.6247 40.2385 41.7473 40.2278 41.8684 40.2278C42.8896 40.2278 43.7574 40.9584 43.9317 41.9648C43.9519 42.0813 43.9622 42.2016 43.9623 42.3223C43.9628 42.732 44.2761 43.0735 44.6841 43.1093C45.6295 43.1924 46.4029 43.9033 46.565 44.8382C46.608 45.0868 46.6026 45.3321 46.5595 45.5669H45.7108C45.2738 45.5669 44.9198 45.921 44.9198 46.3579C44.9198 46.7947 45.2738 47.1489 45.7108 47.1489H51.8587C51.8391 48.5999 51.6522 50.0173 51.3037 51.3925L47.0168 53.9231C46.7546 53.0106 46.1452 52.2366 45.3056 51.7666C44.3638 51.2396 43.2447 51.1572 42.2354 51.5406L33.4065 54.8947C32.998 55.0498 32.7928 55.5067 32.948 55.9151C33.1031 56.3236 33.5604 56.5286 33.9682 56.3737L35.1314 55.9319L35.4925 57.8817C35.563 58.2625 35.8955 58.5288 36.2694 58.5288C36.3171 58.5288 36.3656 58.5244 36.4144 58.5154C36.8438 58.4359 37.1277 58.0232 37.0481 57.5936L36.6346 55.3609L42.797 53.0198C43.368 52.8029 44.0006 52.8495 44.5329 53.1474C45.0643 53.4447 45.4323 53.9573 45.5429 54.5534L47.1431 63.1928C47.2535 63.7886 47.0935 64.3975 46.7041 64.8635ZM49.5264 58.6718C49.1574 58.7397 48.8868 59.0573 48.8785 59.4325C48.8703 59.8076 49.1268 60.1369 49.4924 60.2207L55.3818 61.5716L55.2347 62.5587L48.4073 61.3317L47.34 55.5696L53.2868 52.0592L53.7822 52.9364L48.7663 56.2893C48.4544 56.4978 48.3319 56.8967 48.473 57.2443C48.614 57.5919 48.98 57.7928 49.3489 57.7249L57.228 56.2776L57.4035 57.2247L49.5264 58.6718Z" fill="#00573D"/>
</svg>
