<svg width="64" height="68" viewBox="0 0 64 68" fill="none" xmlns="http://www.w3.org/2000/svg">
<circle cx="32" cy="32" r="32" fill="#E7F3F0"/>
<path d="M56.2188 36.7508C56.2188 36.5436 56.1364 36.3449 55.9899 36.1984C55.8434 36.0519 55.6447 35.9696 55.4375 35.9696H54.6562V34.4071C54.6562 33.5783 54.327 32.7834 53.741 32.1974C53.1549 31.6113 52.3601 31.2821 51.5312 31.2821H40.8281C41.3338 29.8672 41.492 28.3515 41.2894 26.8627C41.0868 25.3739 40.5293 23.9556 39.6639 22.7274C38.7985 21.4991 37.6506 20.4968 36.3168 19.8049C34.983 19.1131 33.5025 18.752 32 18.752C30.4975 18.752 29.017 19.1131 27.6832 19.8049C26.3494 20.4968 25.2015 21.4991 24.3361 22.7274C23.4707 23.9556 22.9132 25.3739 22.7106 26.8627C22.508 28.3515 22.6662 29.8672 23.1719 31.2821H12.4688C11.6399 31.2821 10.8451 31.6113 10.259 32.1974C9.67299 32.7834 9.34375 33.5783 9.34375 34.4071V35.9696H8.5625C8.3553 35.9696 8.15659 36.0519 8.01007 36.1984C7.86356 36.3449 7.78125 36.5436 7.78125 36.7508V41.4383C7.78103 42.8671 8.34217 44.2389 9.34375 45.2579V66.4383C9.34375 66.6455 9.42606 66.8442 9.57257 66.9908C9.71909 67.1373 9.9178 67.2196 10.125 67.2196H53.875C54.0822 67.2196 54.2809 67.1373 54.4274 66.9908C54.5739 66.8442 54.6562 66.6455 54.6562 66.4383V45.2579C55.6578 44.2389 56.219 42.8671 56.2188 41.4383V36.7508ZM51.5312 32.8446C51.9457 32.8446 52.3431 33.0092 52.6361 33.3022C52.9291 33.5953 53.0938 33.9927 53.0938 34.4071V35.9696H37.1711C38.3764 35.1668 39.3809 34.0976 40.107 32.8446H51.5312ZM32 20.3446C33.5452 20.3446 35.0556 20.8028 36.3404 21.6612C37.6252 22.5197 38.6265 23.7398 39.2178 25.1674C39.8091 26.5949 39.9638 28.1657 39.6624 29.6812C39.3609 31.1967 38.6169 32.5888 37.5243 33.6814C36.4317 34.774 35.0396 35.518 33.5241 35.8195C32.0087 36.1209 30.4378 35.9662 29.0103 35.3749C27.5827 34.7836 26.3626 33.7822 25.5041 32.4975C24.6457 31.2127 24.1875 29.7022 24.1875 28.1571C24.1898 26.0858 25.0136 24.1 26.4782 22.6353C27.9429 21.1707 29.9287 20.3469 32 20.3446ZM10.9062 34.4071C10.9062 33.9927 11.0709 33.5953 11.3639 33.3022C11.6569 33.0092 12.0543 32.8446 12.4688 32.8446H23.893C24.6191 34.0976 25.6236 35.1668 26.8289 35.9696H10.9062V34.4071ZM54.6562 37.5321V39.0946H9.34375V37.5321H54.6562ZM9.34375 41.4383V40.6571H17.1562V41.4383C17.1562 42.4743 16.7447 43.4679 16.0121 44.2005C15.2796 44.933 14.286 45.3446 13.25 45.3446C12.214 45.3446 11.2204 44.933 10.4879 44.2005C9.7553 43.4679 9.34375 42.4743 9.34375 41.4383ZM18.7188 40.6571H26.5312V41.4383C26.5312 42.4743 26.1197 43.4679 25.3871 44.2005C24.6546 44.933 23.661 45.3446 22.625 45.3446C21.589 45.3446 20.5954 44.933 19.8629 44.2005C19.1303 43.4679 18.7188 42.4743 18.7188 41.4383V40.6571ZM28.0938 40.6571H35.9062V41.4383C35.9062 42.4743 35.4947 43.4679 34.7621 44.2005C34.0296 44.933 33.036 45.3446 32 45.3446C30.964 45.3446 29.9704 44.933 29.2379 44.2005C28.5053 43.4679 28.0938 42.4743 28.0938 41.4383V40.6571ZM37.4688 40.6571H45.2812V41.4383C45.2812 42.4743 44.8697 43.4679 44.1371 44.2005C43.4046 44.933 42.411 45.3446 41.375 45.3446C40.339 45.3446 39.3454 44.933 38.6129 44.2005C37.8803 43.4679 37.4688 42.4743 37.4688 41.4383V40.6571ZM24.9688 62.5321H14.0312V50.0321H24.9688V62.5321ZM14.0312 64.0946H24.9688V65.6571H14.0312V64.0946ZM26.5312 65.6571V49.2508C26.5312 49.0436 26.4489 48.8449 26.3024 48.6984C26.1559 48.5519 25.9572 48.4696 25.75 48.4696H13.25C13.0428 48.4696 12.8441 48.5519 12.6976 48.6984C12.5511 48.8449 12.4688 49.0436 12.4688 49.2508V65.6571H10.9062V46.3719C12.1325 46.9602 13.5346 47.0677 14.8362 46.6732C16.1378 46.2787 17.2443 45.4108 17.9375 44.2407C18.4206 45.0534 19.1067 45.7266 19.9285 46.1941C20.7503 46.6616 21.6795 46.9074 22.625 46.9074C23.5705 46.9074 24.4997 46.6616 25.3215 46.1941C26.1433 45.7266 26.8294 45.0534 27.3125 44.2407C27.7956 45.0534 28.4817 45.7266 29.3035 46.1941C30.1253 46.6616 31.0545 46.9074 32 46.9074C32.9455 46.9074 33.8747 46.6616 34.6965 46.1941C35.5183 45.7266 36.2044 45.0534 36.6875 44.2407C37.1706 45.0534 37.8567 45.7266 38.6785 46.1941C39.5003 46.6616 40.4295 46.9074 41.375 46.9074C42.3205 46.9074 43.2497 46.6616 44.0715 46.1941C44.8933 45.7266 45.5794 45.0534 46.0625 44.2407C46.7557 45.4108 47.8622 46.2787 49.1638 46.6732C50.4654 47.0677 51.8675 46.9602 53.0938 46.3719V65.6571H26.5312ZM50.75 45.3446C49.7144 45.3433 48.7215 44.9314 47.9892 44.1991C47.2569 43.4668 46.845 42.474 46.8438 41.4383V40.6571H54.6562V41.4383C54.655 42.474 54.2431 43.4668 53.5108 44.1991C52.7785 44.9314 51.7856 45.3433 50.75 45.3446Z" fill="#00573D"/>
<path d="M16.375 60.9688H22.625C22.8322 60.9688 23.0309 60.8864 23.1774 60.7399C23.3239 60.5934 23.4062 60.3947 23.4062 60.1875V52.375C23.4062 52.1678 23.3239 51.9691 23.1774 51.8226C23.0309 51.6761 22.8322 51.5938 22.625 51.5938H16.375C16.1678 51.5938 15.9691 51.6761 15.8226 51.8226C15.6761 51.9691 15.5938 52.1678 15.5938 52.375V60.1875C15.5938 60.3947 15.6761 60.5934 15.8226 60.7399C15.9691 60.8864 16.1678 60.9688 16.375 60.9688ZM17.1562 53.1562H21.8438V59.4062H17.1562V53.1562Z" fill="#00573D"/>
<path d="M50.75 48.4688H28.875C28.6678 48.4688 28.4691 48.5511 28.3226 48.6976C28.1761 48.8441 28.0938 49.0428 28.0938 49.25V63.3125C28.0938 63.5197 28.1761 63.7184 28.3226 63.8649C28.4691 64.0114 28.6678 64.0938 28.875 64.0938H50.75C50.9572 64.0938 51.1559 64.0114 51.3024 63.8649C51.4489 63.7184 51.5312 63.5197 51.5312 63.3125V49.25C51.5312 49.0428 51.4489 48.8441 51.3024 48.6976C51.1559 48.5511 50.9572 48.4688 50.75 48.4688ZM49.9688 57.7656C49.087 57.5843 48.2948 57.1045 47.7256 56.4072C47.1563 55.7099 46.8449 54.8377 46.8438 53.9375V50.0312H49.9688V57.7656ZM45.2812 62.5312H44.5V57.0625H42.9375V62.5312H40.5938V59.4062H42.1562V57.8438H37.4688V59.4062H39.0312V62.5312H36.6875V57.0625H35.125V62.5312H34.3438V62.2187C34.3441 60.5311 33.919 58.8705 33.1078 57.3906C33.77 56.5823 34.1858 55.6006 34.3055 54.5625C34.5669 54.6639 34.8446 54.7169 35.125 54.7188C35.7019 54.7193 36.2585 54.5061 36.6875 54.1203C37.1167 54.5056 37.6732 54.7187 38.25 54.7187C38.8268 54.7187 39.3833 54.5056 39.8125 54.1203C40.2417 54.5056 40.7982 54.7187 41.375 54.7187C41.9518 54.7187 42.5083 54.5056 42.9375 54.1203C43.3665 54.5061 43.9231 54.7193 44.5 54.7188C44.7804 54.7169 45.0581 54.6639 45.3195 54.5625C45.4385 55.6019 45.8543 56.5851 46.5172 57.3945C45.706 58.8744 45.2809 60.535 45.2812 62.2227V62.5312ZM34.3438 50.0312H45.2812V52.375C45.2812 52.5822 45.1989 52.7809 45.0524 52.9274C44.9059 53.0739 44.7072 53.1562 44.5 53.1562C44.2928 53.1562 44.0941 53.0739 43.9476 52.9274C43.8011 52.7809 43.7188 52.5822 43.7188 52.375C43.7188 52.1678 43.6364 51.9691 43.4899 51.8226C43.3434 51.6761 43.1447 51.5938 42.9375 51.5938C42.7303 51.5938 42.5316 51.6761 42.3851 51.8226C42.2386 51.9691 42.1562 52.1678 42.1562 52.375C42.1562 52.5822 42.0739 52.7809 41.9274 52.9274C41.7809 53.0739 41.5822 53.1562 41.375 53.1562C41.1678 53.1562 40.9691 53.0739 40.8226 52.9274C40.6761 52.7809 40.5938 52.5822 40.5938 52.375C40.5938 52.1678 40.5114 51.9691 40.3649 51.8226C40.2184 51.6761 40.0197 51.5938 39.8125 51.5938C39.6053 51.5938 39.4066 51.6761 39.2601 51.8226C39.1136 51.9691 39.0312 52.1678 39.0312 52.375C39.0312 52.5822 38.9489 52.7809 38.8024 52.9274C38.6559 53.0739 38.4572 53.1562 38.25 53.1562C38.0428 53.1562 37.8441 53.0739 37.6976 52.9274C37.5511 52.7809 37.4688 52.5822 37.4688 52.375C37.4688 52.1678 37.3864 51.9691 37.2399 51.8226C37.0934 51.6761 36.8947 51.5938 36.6875 51.5938C36.4803 51.5938 36.2816 51.6761 36.1351 51.8226C35.9886 51.9691 35.9062 52.1678 35.9062 52.375C35.9062 52.5822 35.8239 52.7809 35.6774 52.9274C35.5309 53.0739 35.3322 53.1562 35.125 53.1562C34.9178 53.1562 34.7191 53.0739 34.5726 52.9274C34.4261 52.7809 34.3438 52.5822 34.3438 52.375V50.0312ZM32.7812 50.0312V53.9375C32.7801 54.8377 32.4687 55.7099 31.8994 56.4072C31.3302 57.1045 30.538 57.5843 29.6562 57.7656V50.0312H32.7812ZM29.6562 59.3437C30.4632 59.23 31.2343 58.9363 31.9125 58.4844C32.4838 59.6478 32.7809 60.9266 32.7812 62.2227V62.5312H29.6562V59.3437ZM46.8438 62.5312V62.2187C46.8437 60.9219 47.1409 59.6422 47.7125 58.4781C48.3901 58.9322 49.1613 59.2281 49.9688 59.3437V62.5312H46.8438Z" fill="#00573D"/>
<path d="M27.4469 32.5196C28.0449 33.1176 28.7547 33.5919 29.5359 33.9155C30.3172 34.2391 31.1545 34.4056 32.0001 34.4056C32.8457 34.4056 33.683 34.2391 34.4642 33.9155C35.2454 33.5919 35.9553 33.1176 36.5532 32.5196L37.2399 31.8329C37.3559 31.7171 37.4325 31.5676 37.4588 31.4058C37.4852 31.244 37.46 31.078 37.3868 30.9314L32.6993 21.5564C32.6271 21.4353 32.5247 21.335 32.4021 21.2654C32.2796 21.1958 32.141 21.1592 32.0001 21.1592C31.8591 21.1592 31.7206 21.1958 31.598 21.2654C31.4754 21.335 31.373 21.4353 31.3008 21.5564L26.6133 30.9314C26.5401 31.078 26.5149 31.244 26.5413 31.4058C26.5677 31.5676 26.6442 31.7171 26.7602 31.8329L27.4469 32.5196ZM35.4485 31.415C34.5339 32.3294 33.2934 32.8431 32.0001 32.8431C30.7067 32.8431 29.4663 32.3294 28.5516 31.415L28.2633 31.1267L28.654 30.3392C29.6605 30.9551 30.8177 31.281 31.9977 31.281C33.1778 31.281 34.3349 30.9551 35.3415 30.3392L35.7321 31.1267L35.4485 31.415ZM32.0001 23.6525L34.6438 28.9368C33.8556 29.4448 32.9378 29.7149 32.0001 29.7149C31.0624 29.7149 30.1445 29.4448 29.3563 28.9368L32.0001 23.6525Z" fill="#00573D"/>
</svg>
