<svg width="64" height="69" viewBox="0 0 64 69" fill="none" xmlns="http://www.w3.org/2000/svg">
<circle cx="32" cy="32" r="32" fill="#E7F3F0"/>
<g clip-path="url(#clip0)">
<path d="M8.75976 33.0442H17.5779C19.0996 33.0442 20.3377 34.2829 20.3377 35.8055V45.9551H23.636C23.4527 45.2887 23.3848 44.5027 23.4293 43.588V43.5879C23.5009 39.7226 24.2023 36.4649 25.5142 33.9053C26.5329 31.918 27.7217 30.7266 28.7418 30.0143C27.5445 28.7833 26.8522 27.032 26.8522 25.0123C26.8522 21.3783 29.7511 18.4219 33.3142 18.4219C36.8773 18.4219 39.7762 21.3783 39.7762 25.0123C39.7762 25.433 39.4352 25.774 39.0145 25.774H38.497C38.5446 26.0614 38.57 26.3543 38.57 26.6518C38.57 29.2128 36.74 31.3532 34.3206 31.8329C34.5742 32.7746 34.7002 33.885 34.6997 35.1464L36.5996 36.7804L41.2222 37.1543L46.5545 35.3915C47.0432 35.229 47.5972 35.0454 48.0777 35.392C48.5513 35.7337 48.5513 36.332 48.5513 36.5285V40.493C48.5513 40.9138 48.2103 41.2548 47.7896 41.2548H46.8828L48.2737 46.0611C48.3906 46.4651 48.1578 46.8876 47.7537 47.0045C47.3493 47.122 46.9271 46.8886 46.8101 46.4846L45.2967 41.2548H43.1311C45.8246 49.4683 44.2877 54.9509 41.9255 60.4993H43.2948L48.9978 54.1226L47.7919 49.9565C47.6749 49.5524 47.9076 49.13 48.3117 49.0131C48.7159 48.8962 49.1383 49.129 49.2553 49.533L50.4087 53.518C53.9762 53.4585 57.1673 55.9181 57.9805 59.4569C58.0746 59.8668 57.8188 60.2755 57.409 60.3697L56.3277 60.6186C56.6039 63.4879 54.7144 66.195 51.8326 66.8584C51.395 66.9592 50.9536 67.009 50.5152 67.009C49.4342 67.009 48.3722 66.7059 47.4328 66.1171C46.3304 65.4263 45.5089 64.4107 45.0644 63.2104L44.2112 63.4068C43.957 63.4656 43.7158 63.4953 43.4749 63.3656C43.2508 63.245 43.1018 63.0271 43.0459 62.7812C42.9923 62.5319 42.9515 62.2785 42.9231 62.0228H26.9923C26.4828 65.1902 23.7879 67.5778 20.5692 67.5778C17.3506 67.5778 14.6556 65.1902 14.1461 62.0228H13.5648C13.5648 62.0228 13.4494 62.0241 13.4231 62.0241C13.2052 62.0241 12.8906 61.9999 12.6322 61.7371C12.5029 61.6055 12.3512 61.3702 12.3629 60.9964C12.3843 60.2811 12.4917 59.5899 12.6749 58.933C12.0682 55.2496 12.6519 53.0061 13.5174 51.2504C12.9702 50.8918 12.6075 50.2739 12.6075 49.5719V47.4784H8.75996C7.23825 47.4784 6.00021 46.2397 6.00021 44.7171V35.8054C6 34.2829 7.23795 33.0442 8.75976 33.0442ZM48.2418 64.8265C49.2169 65.4376 50.3706 65.6319 51.4907 65.374H51.4908C53.5523 64.8995 54.9276 63.0091 54.8274 60.9651L46.565 62.8667C46.9068 63.6716 47.4852 64.3524 48.2418 64.8265ZM44.4303 61.7932L56.2791 59.0667C55.3648 56.5628 52.9041 54.9053 50.2144 55.0479L44.41 61.5378C44.4151 61.6234 44.4218 61.7085 44.4303 61.7932ZM32.9248 48.5195C33.1459 49.1027 33.1459 49.8217 33.1459 50.8169V53.6913H35.9351V49.7478C35.9351 45.2894 33.5019 44.4949 32.4099 44.3638H24.9421C24.9722 45.3757 25.2005 46.0949 25.634 46.5514C26.1391 47.0834 27.0035 47.3426 28.2767 47.3438L31.0109 47.3467C31.9859 47.3468 32.6298 47.7412 32.9248 48.5195ZM33.1459 55.2146V57.0334C33.1528 57.0334 33.1599 57.0334 33.1673 57.0334H38.5778C38.517 56.4693 38.3413 56.0328 38.0527 55.7308C37.6235 55.2817 37.019 55.2146 36.6969 55.2146H33.1459ZM24.9757 42.8404H31.903C32.1812 41.9651 32.4292 41.0065 32.6331 40.0214L30.527 38.6543C29.3774 37.9078 28.7792 36.8528 28.8861 35.7599C28.9807 34.7911 29.6394 33.9257 30.564 33.5553C31.4084 33.2171 32.3173 33.3233 33.1205 33.8369C33.0543 33.1083 32.931 32.4579 32.7527 31.9058C32.428 31.8723 32.1055 31.8088 31.7889 31.7157C31.1442 31.566 30.5486 31.3274 30.0108 31.0111C28.5437 31.8875 25.3171 34.7305 24.9757 42.8404ZM38.197 24.2506C37.8378 21.8168 35.785 19.9454 33.3142 19.9454C30.5911 19.9454 28.3756 22.2185 28.3756 25.0124C28.3756 27.2847 29.4653 29.1162 31.2223 29.9222V25.9142C31.2223 25.2203 31.4879 24.369 32.7528 24.2538C32.7757 24.2517 32.7988 24.2506 32.8218 24.2506H38.197ZM37.0464 26.6519C37.0464 26.3513 37.0122 26.0576 36.9449 25.7741H32.8592C32.8122 25.7792 32.7779 25.7846 32.7533 25.7896C32.7493 25.8179 32.7459 25.8585 32.7459 25.9142V30.3704C32.9274 30.3971 33.11 30.4106 33.2925 30.4107C33.2942 30.4107 33.2959 30.4107 33.2976 30.4107C35.365 30.4088 37.0464 28.7234 37.0464 26.6519ZM38.0339 38.425L36.2298 38.2791C36.069 38.2662 35.9166 38.2025 35.7942 38.0974L32.5381 35.2968L32.5376 35.2963C32.2227 35.025 31.8867 34.8859 31.5594 34.8859C31.4138 34.8859 31.2699 34.9135 31.1304 34.9694C30.7279 35.1305 30.4421 35.499 30.4021 35.9079C30.3518 36.4225 30.6909 36.9441 31.3564 37.3764L34.9847 39.7314H38.0337V38.425H38.0339ZM41.2531 38.6854L39.5574 38.5483V39.7316H41.5278C41.7832 39.7316 41.8455 39.5194 41.8528 39.3413C41.8569 39.2404 41.8474 38.7342 41.2531 38.6854ZM43.0559 38.1595C43.2853 38.5357 43.3925 38.9758 43.3749 39.4037C43.3703 39.5145 43.3562 39.6212 43.3365 39.7252C43.3365 39.7274 43.3377 39.7295 43.3373 39.7315H47.0277V36.8397L43.0529 38.1536C43.0542 38.1557 43.0548 38.1576 43.0559 38.1595ZM41.5235 41.255H34.7593C34.6122 41.255 34.4681 41.2123 34.3447 41.1322L33.9999 40.9083C33.834 41.6414 33.6451 42.3548 33.4393 43.0285C34.9928 43.4871 37.4587 44.969 37.4587 49.7477V53.7677C37.9931 53.8755 38.6253 54.1248 39.1542 54.6782C39.7116 55.2615 40.03 56.052 40.1064 57.0333H41.6431C43.1915 52.5708 43.7803 47.8222 41.5235 41.255ZM40.268 60.4968C40.5495 59.8493 40.8209 59.2043 41.0764 58.5568H33.1674C32.1423 58.5568 31.6226 58.0902 31.6226 57.1699V54.4529V51.5785H25.6102C25.1894 51.5785 24.8485 51.2375 24.8485 50.8168C24.8485 50.396 25.1894 50.055 25.6102 50.055H31.6171C31.6074 49.6224 31.5796 49.2685 31.5003 49.0595C31.4618 48.9579 31.4285 48.8701 31.0102 48.8701L28.2753 48.8673C26.5624 48.8656 25.3371 48.4513 24.5292 47.6004C24.4918 47.561 24.4564 47.5196 24.421 47.4785H19.5759H14.1306V49.572C14.1306 49.8338 14.3513 50.055 14.6125 50.055H22.1957C22.6164 50.055 22.9574 50.396 22.9574 50.8168C22.9574 51.2375 22.6164 51.5785 22.1957 51.5785H15.0601C14.458 52.696 13.9165 54.0865 13.9487 56.2834C15.4557 54.1901 17.8953 52.844 20.6641 52.844C22.8877 52.844 24.9742 53.7163 26.5394 55.3001C27.9283 56.7055 28.7624 58.5294 28.934 60.4993L40.268 60.4968ZM20.5691 66.0546C22.9504 66.0546 24.9587 64.3389 25.4445 62.023H15.6937C16.1797 64.3387 18.188 66.0546 20.5691 66.0546ZM14.8284 60.4995H26.3097H27.404C27.03 57.0552 24.1501 54.3675 20.6641 54.3675C17.6035 54.3675 15.0333 56.3856 14.1821 59.2108C14.1793 59.2197 14.1766 59.2287 14.1735 59.2375C14.0532 59.6428 13.9682 60.0647 13.9222 60.4995H14.8284ZM7.52344 44.7172C7.52344 45.3998 8.07807 45.9551 8.75976 45.9551H18.8142V42.0214H7.52344V44.7172ZM7.52344 40.498H18.8142V38.878H7.52344V40.498ZM7.52344 37.3545H18.8142V35.8055C18.8142 35.1229 18.2596 34.5677 17.5779 34.5677H8.75976C8.07807 34.5677 7.52344 35.123 7.52344 35.8055V37.3545Z" fill="#00573D"/>
</g>
<defs>
<clipPath id="clip0">
<rect width="52" height="52" fill="white" transform="matrix(-1 0 0 1 58 17)"/>
</clipPath>
</defs>
</svg>
