<svg width="16" height="16" viewBox="0 0 16 16" fill="none" xmlns="http://www.w3.org/2000/svg">
<g clip-path="url(#clip0)">
<path d="M13.6569 2.34413C12.1459 0.833133 10.1369 0.000976562 8 0.000976562C5.86312 0.000976562 3.85413 0.833133 2.34313 2.34413C0.832125 3.85513 0 5.8641 0 8.00098C0 10.1379 0.832125 12.1469 2.34313 13.6578C3.85413 15.1688 5.86312 16.001 8 16.001C10.1369 16.001 12.1459 15.1688 13.6569 13.6578C15.1679 12.1468 16 10.1379 16 8.00098C16 5.8641 15.1679 3.8551 13.6569 2.34413ZM8 14.4307C4.45459 14.4307 1.57025 11.5464 1.57025 8.00098C1.57025 7.99516 1.57044 7.98941 1.57047 7.98366C1.57047 7.9822 1.57025 7.98079 1.57025 7.97932C1.57025 7.97685 1.57056 7.97448 1.57062 7.97204C1.58622 4.46913 4.41706 1.61923 7.91262 1.57235C7.91994 1.57201 7.92719 1.57126 7.93459 1.57126C7.93903 1.57126 7.94334 1.57179 7.94775 1.57191C7.96519 1.57179 7.98256 1.57126 8.00003 1.57126C11.5454 1.57126 14.4298 4.45563 14.4298 8.00101C14.4298 11.5464 11.5454 14.4307 8 14.4307Z" fill="#00573D"/>
<path d="M12.8839 8.3873C12.6225 8.3873 12.4106 8.17536 12.4106 7.91392C12.4106 7.65248 12.6225 7.44055 12.8839 7.44055H13.4545C13.1865 4.81317 11.0557 2.72889 8.40789 2.5332V3.02992C8.40789 3.29136 8.19596 3.5033 7.93452 3.5033C7.67308 3.5033 7.46114 3.29136 7.46114 3.02992V2.54452C4.85252 2.80014 2.77461 4.89145 2.53952 7.50595H3.05052C3.31196 7.50595 3.52389 7.71789 3.52389 7.97933C3.52389 8.24077 3.31196 8.4527 3.05052 8.4527H2.53564C2.7533 11.1093 4.87286 13.2354 7.52658 13.4634V12.8633C7.52658 12.6019 7.73852 12.3899 7.99996 12.3899C8.26139 12.3899 8.47333 12.6019 8.47333 12.8633V13.4634C11.1488 13.2335 13.2812 11.0743 13.4692 8.3873H12.8839ZM9.91621 6.75423L8.33471 8.33577C8.24593 8.42455 8.12555 8.47442 7.99999 8.47442C7.87446 8.47442 7.75402 8.42455 7.66527 8.33577L4.91236 5.58286C4.72749 5.39802 4.72749 5.0983 4.91236 4.91342C5.09721 4.72855 5.39693 4.72855 5.5818 4.91342L8.00002 7.33161L9.24683 6.0848C9.43168 5.89992 9.73139 5.89992 9.91627 6.0848C10.1011 6.26964 10.1011 6.56939 9.91621 6.75423Z" fill="#00573D"/>
</g>
<defs>
<clipPath id="clip0">
<rect width="16" height="16" fill="white" transform="translate(0 0.000976562)"/>
</clipPath>
</defs>
</svg>
