<svg width="12" height="12" viewBox="0 0 12 12" fill="none" xmlns="http://www.w3.org/2000/svg">
<g clip-path="url(#clip0)">
<path d="M4.969 7.03137C3.82363 5.88599 3.565 4.74061 3.50666 4.28172C3.49036 4.15483 3.53402 4.02758 3.6248 3.93744L4.55169 3.01096C4.68804 2.87469 4.71224 2.66233 4.61004 2.49889L3.13425 0.207302C3.02118 0.0263187 2.78903 -0.0389999 2.59818 0.0564741L0.229005 1.17227C0.0746719 1.24826 -0.0161045 1.41224 0.00141827 1.58337C0.125556 2.76268 0.639694 5.66172 3.48866 8.51089C6.33763 11.3601 9.23625 11.874 10.4162 11.9981C10.5873 12.0157 10.7513 11.9249 10.8273 11.7705L11.9431 9.40137C12.0382 9.21093 11.9733 8.9794 11.7931 8.86613L9.50149 7.39075C9.33814 7.28844 9.12578 7.31247 8.98942 7.44868L8.06293 8.37558C7.97279 8.46635 7.84555 8.51002 7.71866 8.49372C7.25976 8.43537 6.11438 8.17675 4.969 7.03137Z" fill="#00573D"/>
</g>
<defs>
<clipPath id="clip0">
<rect width="12" height="12" fill="white"/>
</clipPath>
</defs>
</svg>
