<svg width="16" height="16" viewBox="0 0 16 16" fill="none" xmlns="http://www.w3.org/2000/svg">
<path d="M7.99994 0C4.67194 0 1.96457 2.70737 1.96457 6.03495C1.96457 10.8261 7.35236 15.6392 7.58183 15.8421C7.70183 15.9474 7.85088 16 7.99994 16C8.15488 16 8.30983 15.9432 8.43067 15.8299C8.65931 15.616 14.0353 10.5381 14.0353 6.03537C14.0353 2.70779 11.3271 0 7.99994 0ZM7.99994 8.91284C6.41046 8.91284 5.12246 7.624 5.12246 6.03579C5.12246 4.44758 6.41046 3.15874 7.99994 3.15874C9.58857 3.15874 10.8766 4.44716 10.8766 6.03579C10.8766 7.62442 9.58857 8.91284 7.99994 8.91284Z" fill="#00573D"/>
</svg>
