<svg width="40" height="32" viewBox="0 0 40 32" fill="none" xmlns="http://www.w3.org/2000/svg">
<path d="M7.27897 30.971V28.9109C7.27897 28.1212 6.79829 27.6062 5.97425 27.6062C5.56224 27.6062 5.11589 27.7435 4.80687 28.1899C4.56653 27.8122 4.22318 27.6062 3.70816 27.6062C3.36481 27.6062 3.02147 27.7092 2.74679 28.0869V27.6748H2.02576V30.971H2.74679V29.1512C2.74679 28.5675 3.0558 28.2929 3.53648 28.2929C4.01717 28.2929 4.25752 28.6019 4.25752 29.1512V30.971H4.97855V29.1512C4.97855 28.5675 5.32189 28.2929 5.76824 28.2929C6.24893 28.2929 6.48928 28.6019 6.48928 29.1512V30.971H7.27897ZM17.9571 27.6748H16.7897V26.6791H16.0687V27.6748H15.4163V28.3272H16.0687V29.8379C16.0687 30.5933 16.3777 31.0396 17.2017 31.0396C17.5107 31.0396 17.8541 30.9366 18.0944 30.7993L17.8884 30.1813C17.6824 30.3186 17.4421 30.3529 17.2704 30.3529C16.927 30.3529 16.7897 30.1469 16.7897 29.8036V28.3272H17.9571V27.6748ZM24.0687 27.6062C23.6566 27.6062 23.382 27.8122 23.2103 28.0869V27.6748H22.4893V30.971H23.2103V29.1169C23.2103 28.5675 23.4506 28.2585 23.897 28.2585C24.0343 28.2585 24.206 28.2929 24.3433 28.3272L24.5494 27.6405C24.412 27.6062 24.206 27.6062 24.0687 27.6062ZM14.8326 27.9495C14.4893 27.7092 14.0086 27.6062 13.4936 27.6062C12.6695 27.6062 12.1202 28.0182 12.1202 28.6705C12.1202 29.2199 12.5322 29.5289 13.2532 29.6319L13.5966 29.6662C13.9742 29.7349 14.1803 29.8379 14.1803 30.0096C14.1803 30.2499 13.9056 30.4216 13.4249 30.4216C12.9442 30.4216 12.5665 30.2499 12.3262 30.0783L11.9828 30.6276C12.3605 30.9023 12.8755 31.0396 13.3906 31.0396C14.3519 31.0396 14.9013 30.5933 14.9013 29.9753C14.9013 29.3916 14.4549 29.0826 13.7682 28.9796L13.4249 28.9452C13.1159 28.9109 12.8755 28.8422 12.8755 28.6362C12.8755 28.3959 13.1159 28.2585 13.4936 28.2585C13.9056 28.2585 14.3176 28.4302 14.5236 28.5332L14.8326 27.9495ZM33.9914 27.6062C33.5794 27.6062 33.3047 27.8122 33.133 28.0869V27.6748H32.412V30.971H33.133V29.1169C33.133 28.5675 33.3734 28.2585 33.8197 28.2585C33.9571 28.2585 34.1288 28.2929 34.2661 28.3272L34.4721 27.6405C34.3348 27.6062 34.1288 27.6062 33.9914 27.6062ZM24.7897 29.3229C24.7897 30.3186 25.4764 31.0396 26.5408 31.0396C27.0215 31.0396 27.3648 30.9366 27.7082 30.662L27.3648 30.0783C27.0901 30.2843 26.8154 30.3873 26.5064 30.3873C25.9227 30.3873 25.5107 29.9753 25.5107 29.3229C25.5107 28.7049 25.9227 28.2929 26.5064 28.2585C26.8154 28.2585 27.0901 28.3615 27.3648 28.5675L27.7082 27.9838C27.3648 27.7092 27.0215 27.6062 26.5408 27.6062C25.4764 27.6062 24.7897 28.3272 24.7897 29.3229ZM31.4506 29.3229V27.6748H30.7296V28.0869C30.4893 27.7778 30.1459 27.6062 29.6996 27.6062C28.7725 27.6062 28.0515 28.3272 28.0515 29.3229C28.0515 30.3186 28.7725 31.0396 29.6996 31.0396C30.1803 31.0396 30.5236 30.868 30.7296 30.559V30.971H31.4506V29.3229ZM28.8069 29.3229C28.8069 28.7392 29.1845 28.2585 29.8026 28.2585C30.3863 28.2585 30.7983 28.7049 30.7983 29.3229C30.7983 29.9066 30.3863 30.3873 29.8026 30.3873C29.1845 30.3529 28.8069 29.9066 28.8069 29.3229ZM20.1888 27.6062C19.2275 27.6062 18.5408 28.2929 18.5408 29.3229C18.5408 30.3529 19.2275 31.0396 20.2232 31.0396C20.7039 31.0396 21.1845 30.9023 21.5622 30.5933L21.2189 30.0783C20.9442 30.2843 20.6009 30.4216 20.2575 30.4216C19.8112 30.4216 19.3648 30.2156 19.2618 29.6319H21.6996C21.6996 29.5289 21.6996 29.4602 21.6996 29.3572C21.7339 28.2929 21.1159 27.6062 20.1888 27.6062ZM20.1888 28.2242C20.6352 28.2242 20.9442 28.4989 21.0129 29.0139H19.2961C19.3648 28.5675 19.6738 28.2242 20.1888 28.2242ZM38.0773 29.3229V26.3701H37.3562V28.0869C37.1159 27.7778 36.7725 27.6062 36.3262 27.6062C35.3991 27.6062 34.6781 28.3272 34.6781 29.3229C34.6781 30.3186 35.3991 31.0396 36.3262 31.0396C36.8069 31.0396 37.1502 30.868 37.3562 30.559V30.971H38.0773V29.3229ZM35.4335 29.3229C35.4335 28.7392 35.8112 28.2585 36.4292 28.2585C37.0129 28.2585 37.4249 28.7049 37.4249 29.3229C37.4249 29.9066 37.0129 30.3873 36.4292 30.3873C35.8112 30.3529 35.4335 29.9066 35.4335 29.3229ZM11.3305 29.3229V27.6748H10.6094V28.0869C10.3691 27.7778 10.0258 27.6062 9.5794 27.6062C8.65237 27.6062 7.93133 28.3272 7.93133 29.3229C7.93133 30.3186 8.65237 31.0396 9.5794 31.0396C10.0601 31.0396 10.4034 30.868 10.6094 30.559V30.971H11.3305V29.3229ZM8.65236 29.3229C8.65236 28.7392 9.03004 28.2585 9.64807 28.2585C10.2318 28.2585 10.6438 28.7049 10.6438 29.3229C10.6438 29.9066 10.2318 30.3873 9.64807 30.3873C9.03004 30.3529 8.65236 29.9066 8.65236 29.3229Z" fill="black"/>
<path d="M25.4077 2.64453H14.5923V22.078H25.4077V2.64453Z" fill="#FF5F00"/>
<path d="M15.279 12.3615C15.279 8.41299 17.133 4.91085 19.9828 2.64476C17.8884 0.996689 15.2446 0.000976562 12.3605 0.000976562C5.5279 0.000976562 0 5.52887 0 12.3615C0 19.1941 5.5279 24.722 12.3605 24.722C15.2446 24.722 17.8884 23.7263 19.9828 22.0782C17.133 19.8465 15.279 16.31 15.279 12.3615Z" fill="#EB001B"/>
<path d="M40 12.3615C40 19.1941 34.4721 24.722 27.6395 24.722C24.7554 24.722 22.1116 23.7263 20.0172 22.0782C22.9013 19.8121 24.7211 16.31 24.7211 12.3615C24.7211 8.41299 22.867 4.91085 20.0172 2.64476C22.1116 0.996689 24.7554 0.000976562 27.6395 0.000976562C34.4721 0.000976562 40 5.56321 40 12.3615Z" fill="#F79E1B"/>
</svg>
