<svg width="56" height="19" viewBox="0 0 56 19" fill="none" xmlns="http://www.w3.org/2000/svg">
<g clip-path="url(#clip0)">
<path d="M24.2467 17.8472H19.714L22.549 0.317383H27.0815L24.2467 17.8472Z" fill="#00579F"/>
<path d="M40.6779 0.746315C39.7839 0.391623 38.3659 0 36.6125 0C32.1363 0 28.9843 2.38692 28.9649 5.79949C28.9278 8.31728 31.2217 9.71572 32.9374 10.5552C34.6911 11.4131 35.2872 11.973 35.2872 12.7377C35.2693 13.912 33.8701 14.4534 32.5651 14.4534C30.7555 14.4534 29.7859 14.1743 28.3123 13.5209L27.7155 13.2408L27.0812 17.1759C28.1443 17.6602 30.1029 18.09 32.1363 18.1088C36.8923 18.1088 39.9886 15.7589 40.0253 12.1222C40.0434 10.1267 38.8321 8.59761 36.2206 7.34814C34.6353 6.54605 33.6644 6.00522 33.6644 5.18454C33.683 4.43848 34.4856 3.67432 36.2751 3.67432C37.7487 3.63689 38.8314 3.99108 39.6515 4.34553L40.0615 4.53167L40.6779 0.746315Z" fill="#00579F"/>
<path d="M46.7022 11.637C47.0755 10.63 48.5119 6.73232 48.5119 6.73232C48.493 6.76974 48.8844 5.70666 49.1082 5.05404L49.425 6.56451C49.425 6.56451 50.2833 10.7606 50.4697 11.637C49.7614 11.637 47.5975 11.637 46.7022 11.637ZM52.2972 0.317383H48.7912C47.71 0.317383 46.8886 0.634151 46.4221 1.77184L39.6895 17.847H44.4454C44.4454 17.847 45.2284 15.6834 45.3967 15.2174C45.9185 15.2174 50.5451 15.2174 51.2163 15.2174C51.3464 15.8328 51.7571 17.847 51.7571 17.847H55.954L52.2972 0.317383Z" fill="#00579F"/>
<path d="M15.9282 0.317383L11.4892 12.2711L11.0041 9.84671C10.1835 7.04933 7.60966 4.01004 4.73743 2.49882L8.80337 17.8286H13.5965L20.7211 0.317383H15.9282Z" fill="#00579F"/>
<path d="M7.36722 0.317383H0.0746063L0 0.671578C5.6887 2.12628 9.45621 5.6328 11.0041 9.84745L9.41878 1.79093C9.15778 0.671331 8.3557 0.354314 7.36722 0.317383Z" fill="#FAA61A"/>
</g>
<defs>
<clipPath id="clip0">
<rect width="55.954" height="18.1088" fill="white" transform="translate(0 0.000976562)"/>
</clipPath>
</defs>
</svg>
